<?xml version="1.0" standalone="no"?>
<!DOCTYPE svg PUBLIC "-//W3C//DTD SVG 20010904//EN"
 "http://www.w3.org/TR/2001/REC-SVG-20010904/DTD/svg10.dtd">
<svg version="1.0" xmlns="http://www.w3.org/2000/svg"
 width="512.000000pt" height="512.000000pt" viewBox="0 0 512.000000 512.000000"
 preserveAspectRatio="xMidYMid meet">

<g transform="translate(0.000000,512.000000) scale(0.100000,-0.100000)"
fill="#000000" stroke="none">
<path d="M213 4936 c-86 -27 -158 -90 -194 -170 -18 -39 -19 -123 -19 -2217
l0 -2175 26 -51 c30 -61 88 -117 153 -147 l46 -21 2325 0 2325 0 57 28 c65 32
121 89 152 156 l21 46 0 2165 0 2165 -28 57 c-32 65 -89 121 -156 152 l-46 21
-2310 2 c-1881 1 -2318 -1 -2352 -11z m4662 -159 c22 -13 49 -40 62 -62 22
-39 23 -47 23 -347 l0 -308 -2076 -2 -2076 -3 -24 -28 c-29 -34 -30 -56 -3
-91 l20 -26 2080 0 2079 0 0 -1738 0 -1738 -22 -44 c-17 -33 -35 -51 -68 -68
l-44 -22 -2276 0 -2276 0 -44 22 c-30 15 -53 37 -67 63 l-23 40 0 1743 0 1742
225 0 c212 0 226 1 245 20 25 25 26 71 1 101 -19 24 -22 24 -245 27 l-226 3 0
307 c0 300 1 308 23 347 13 22 40 49 62 62 l40 23 2285 0 2285 0 40 -23z"/>
<path d="M591 4669 c-113 -33 -190 -147 -178 -264 14 -133 116 -225 252 -225
78 0 130 24 183 85 164 186 -18 472 -257 404z m112 -150 c36 -19 57 -52 57
-92 0 -101 -139 -136 -185 -47 -24 46 -19 78 19 116 36 36 70 43 109 23z"/>
<path d="M1175 4664 c-164 -58 -218 -268 -103 -399 68 -78 166 -104 269 -73
86 25 156 115 166 213 19 180 -161 320 -332 259z m152 -169 c32 -32 35 -39 30
-78 -8 -55 -43 -87 -98 -87 -105 0 -137 137 -44 188 39 22 75 14 112 -23z"/>
<path d="M1790 4671 c-74 -24 -139 -82 -166 -147 -20 -48 -17 -151 5 -199 57
-127 208 -181 337 -121 121 56 177 212 118 329 -23 46 -72 95 -118 119 -43 22
-136 32 -176 19z m136 -172 c65 -61 22 -168 -68 -169 -55 0 -98 40 -98 92 0
49 13 73 48 93 35 20 88 12 118 -16z"/>
<path d="M2631 4474 c-12 -15 -21 -33 -21 -40 0 -26 23 -62 47 -73 17 -8 291
-11 943 -11 652 0 926 3 943 11 24 11 47 47 47 73 0 7 -9 25 -21 40 l-20 26
-949 0 -949 0 -20 -26z"/>
<path d="M3520 3711 c-113 -35 -170 -114 -178 -244 -5 -76 -5 -78 -38 -93 -38
-18 -100 -83 -114 -120 l-10 -24 -298 0 c-164 0 -427 -3 -584 -7 l-286 -6 -20
39 c-24 48 -74 98 -112 114 -25 11 -27 16 -33 90 -7 89 -28 138 -79 187 -65
63 -68 63 -488 63 -420 0 -423 0 -489 -63 -71 -67 -71 -67 -71 -502 l0 -390
29 -50 c49 -85 127 -124 249 -125 37 0 52 -4 52 -14 0 -27 70 -104 115 -126
l45 -22 0 -186 c0 -175 2 -190 24 -237 13 -29 44 -69 70 -92 81 -72 91 -73
515 -73 l376 -1 30 -52 c22 -37 44 -60 81 -82 l52 -30 4 -80 c9 -166 94 -245
261 -245 l67 0 20 -39 c22 -45 83 -107 111 -116 25 -8 24 -17 -3 -42 -47 -43
-52 -43 -476 -43 l-410 0 -27 56 c-26 53 -81 105 -126 119 -16 5 -19 16 -19
69 0 116 -44 196 -132 240 l-52 26 -380 0 c-379 0 -381 0 -431 -24 -60 -28
-87 -56 -114 -116 -20 -43 -21 -64 -21 -415 0 -237 4 -384 11 -410 7 -27 29
-57 64 -92 75 -73 88 -75 520 -71 328 3 363 5 395 22 91 48 131 115 138 229
l5 78 37 19 c35 18 110 94 110 111 0 5 199 10 443 11 428 3 443 4 489 25 59
27 122 92 144 148 12 31 24 47 44 54 41 14 107 77 127 122 l17 39 70 0 c85 0
141 24 189 81 47 54 57 97 57 246 0 122 -1 131 -23 151 -33 31 -80 29 -106 -4
-19 -24 -21 -40 -21 -151 0 -118 -1 -125 -25 -148 -20 -21 -34 -25 -83 -25
l-58 0 -34 52 c-69 103 -208 140 -319 83 -50 -25 -96 -72 -112 -112 -8 -21
-15 -23 -78 -23 -97 0 -114 15 -119 106 l-3 69 53 30 c72 41 111 105 116 190
2 35 -1 80 -8 101 -16 47 -84 122 -127 141 -32 13 -33 15 -33 74 0 54 3 64 29
90 l29 29 352 0 c358 0 379 -2 407 -39 8 -10 12 -57 13 -133 0 -65 5 -128 11
-142 24 -51 103 -55 129 -6 8 14 10 71 8 164 -3 139 -4 144 -33 192 -19 30
-49 60 -79 79 l-49 30 -374 3 c-423 4 -451 0 -516 -63 -55 -54 -70 -90 -75
-183 -5 -82 -5 -82 -38 -98 -38 -18 -100 -83 -114 -120 l-10 -24 -370 0 c-410
0 -412 0 -450 63 -18 28 -20 51 -20 204 l0 171 45 27 c45 26 105 95 105 122 0
9 16 13 58 13 119 0 210 49 251 133 12 26 24 75 27 120 l7 77 44 26 c42 24
103 95 103 119 0 14 404 25 880 25 l295 -1 30 -52 c22 -38 44 -60 82 -82 l52
-30 1 -61 c0 -114 46 -195 133 -239 l51 -25 380 0 381 0 52 24 c57 27 106 84
124 145 7 23 9 169 7 416 -3 419 -2 407 -69 473 -69 67 -64 67 -479 69 -206 1
-386 -2 -400 -6z m771 -170 l29 -29 0 -360 0 -359 -25 -27 -24 -26 -365 0
-364 0 -26 31 c-21 25 -26 41 -26 89 0 55 1 58 31 71 149 61 188 278 71 395
-17 16 -47 39 -66 49 -35 19 -36 22 -36 75 0 60 17 95 54 110 11 5 178 9 369
9 l349 1 29 -29z m-2622 -5 c16 -17 24 -41 28 -84 l6 -60 -34 -17 c-47 -24
-97 -73 -120 -117 -60 -118 -11 -272 106 -328 43 -21 45 -24 45 -64 0 -97 -38
-136 -134 -136 -43 0 -47 3 -65 38 -22 43 -73 93 -116 115 -114 57 -266 3
-327 -116 l-20 -39 -59 4 c-44 3 -65 10 -84 28 l-25 23 0 368 0 368 26 20 c26
20 38 21 389 21 l362 0 22 -24z m174 -326 c58 -64 11 -160 -78 -160 -14 0 -39
13 -57 29 -27 24 -33 36 -33 69 0 94 104 132 168 62z m1638 11 c23 -23 29 -38
29 -71 0 -89 -101 -126 -162 -59 -39 41 -38 90 1 130 22 21 39 29 66 29 27 0
44 -8 66 -29z m-2134 -492 c46 -44 37 -126 -18 -154 -42 -22 -75 -18 -111 14
-27 24 -33 36 -33 69 0 88 98 130 162 71z m1154 -758 c38 -39 40 -96 4 -135
-42 -46 -129 -34 -154 21 -31 68 13 143 84 143 27 0 44 -8 66 -29z m509 -508
c30 -38 26 -88 -9 -124 -39 -38 -87 -39 -130 -3 -26 21 -31 33 -31 67 0 50 24
84 65 96 38 10 80 -4 105 -36z m-1426 -34 c21 -25 26 -41 26 -89 0 -52 -2 -58
-23 -64 -37 -9 -103 -72 -126 -121 -58 -124 2 -289 124 -335 26 -10 27 -12 23
-75 -3 -51 -9 -70 -26 -88 -22 -22 -25 -22 -383 -25 l-360 -3 -29 30 -30 29 0
362 0 361 25 24 24 25 365 0 364 0 26 -31z m171 -321 c53 -63 11 -158 -70
-158 -106 0 -133 162 -32 188 46 12 74 4 102 -30z"/>
</g>
</svg>
